HIERARCHY
ROOT mixamorig:Hips
{
	OFFSET -0.000008 104.274872 1.554316
	CHANNELS 6 Xposition Yposition Zposition Xrotation Yrotation Zrotation
	JOINT mixamorig:Spine
	{
		OFFSET -0.000005 10.181595 0.131519
		CHANNELS 6 Xposition Yposition Zposition Xrotation Yrotation Zrotation
		JOINT mixamorig:Spine1
		{
			OFFSET -0.000000 9.893959 -1.470707
			CHANNELS 6 Xposition Yposition Zposition Xrotation Yrotation Zrotation
			JOINT mixamorig:Spine2
			{
				OFFSET -0.000000 9.220757 -1.370641
				CHANNELS 6 Xposition Yposition Zposition Xrotation Yrotation Zrotation
				JOINT mixamorig:Neck
				{
					OFFSET 0.000001 16.740417 -2.049036
					CHANNELS 6 Xposition Yposition Zposition Xrotation Yrotation Zrotation
					JOINT mixamorig:Head
					{
						OFFSET 0.000000 9.617874 1.685006
						CHANNELS 6 Xposition Yposition Zposition Xrotation Yrotation Zrotation
						JOINT mixamorig:HeadTop_End
						{
							OFFSET 0.000002 22.037354 7.501101
							CHANNELS 6 Xposition Yposition Zposition Xrotation Yrotation Zrotation
							End Site
							{
								OFFSET 0.000168 2310.654297 -282.823242
							}
						}
					}
				}
				JOINT mixamorig:RightShoulder
				{
					OFFSET -4.569970 11.014908 -2.160885
					CHANNELS 6 Xposition Yposition Zposition Xrotation Yrotation Zrotation
					JOINT mixamorig:RightArm
					{
						OFFSET -10.592851 -0.524811 -2.232101
						CHANNELS 6 Xposition Yposition Zposition Xrotation Yrotation Zrotation
						JOINT mixamorig:RightForeArm
						{
							OFFSET -27.841511 0.000031 -0.000004
							CHANNELS 6 Xposition Yposition Zposition Xrotation Yrotation Zrotation
							JOINT mixamorig:RightHand
							{
								OFFSET -28.328831 -0.000015 0.000015
								CHANNELS 6 Xposition Yposition Zposition Xrotation Yrotation Zrotation
								JOINT mixamorig:RightHandThumb1
								{
									OFFSET -2.464806 -1.573990 2.681852
									CHANNELS 6 Xposition Yposition Zposition Xrotation Yrotation Zrotation
									JOINT mixamorig:RightHandThumb2
									{
										OFFSET -3.215179 -1.872803 1.924282
										CHANNELS 6 Xposition Yposition Zposition Xrotation Yrotation Zrotation
										JOINT mixamorig:RightHandThumb3
										{
											OFFSET -2.654831 -1.527969 1.512609
											CHANNELS 6 Xposition Yposition Zposition Xrotation Yrotation Zrotation
											JOINT mixamorig:RightHandThumb4
											{
												OFFSET -2.018814 -1.152008 1.108052
												CHANNELS 6 Xposition Yposition Zposition Xrotation Yrotation Zrotation
												End Site
												{
													OFFSET -188.809540 -114.533607 132.431396
												}
											}
										}
									}
								}
								JOINT mixamorig:RightHandIndex1
								{
									OFFSET -9.108284 -0.517868 2.259835
									CHANNELS 6 Xposition Yposition Zposition Xrotation Yrotation Zrotation
									JOINT mixamorig:RightHandIndex2
									{
										OFFSET -3.699989 0.000000 0.001215
										CHANNELS 6 Xposition Yposition Zposition Xrotation Yrotation Zrotation
										JOINT mixamorig:RightHandIndex3
										{
											OFFSET -2.850006 0.000031 -0.000522
											CHANNELS 6 Xposition Yposition Zposition Xrotation Yrotation Zrotation
											JOINT mixamorig:RightHandIndex4
											{
												OFFSET -2.772186 -0.000015 -0.000020
												CHANNELS 6 Xposition Yposition Zposition Xrotation Yrotation Zrotation
												End Site
												{
													OFFSET -277.218445 0.000000 -0.050231
												}
											}
										}
									}
								}
								JOINT mixamorig:RightHandMiddle1
								{
									OFFSET -9.532516 -0.000031 -0.000023
									CHANNELS 6 Xposition Yposition Zposition Xrotation Yrotation Zrotation
									JOINT mixamorig:RightHandMiddle2
									{
										OFFSET -3.700005 -0.000015 0.003713
										CHANNELS 6 Xposition Yposition Zposition Xrotation Yrotation Zrotation
										JOINT mixamorig:RightHandMiddle3
										{
											OFFSET -2.949974 0.000015 -0.002054
											CHANNELS 6 Xposition Yposition Zposition Xrotation Yrotation Zrotation
											JOINT mixamorig:RightHandMiddle4
											{
												OFFSET -2.946640 0.000000 -0.000156
												CHANNELS 6 Xposition Yposition Zposition Xrotation Yrotation Zrotation
												End Site
												{
													OFFSET -294.664337 0.000000 -0.113670
												}
											}
										}
									}
								}
								JOINT mixamorig:RightHandRing1
								{
									OFFSET -9.103600 -0.043076 -1.865134
									CHANNELS 6 Xposition Yposition Zposition Xrotation Yrotation Zrotation
									JOINT mixamorig:RightHandRing2
									{
										OFFSET -3.379288 0.000000 -0.001055
										CHANNELS 6 Xposition Yposition Zposition Xrotation Yrotation Zrotation
										JOINT mixamorig:RightHandRing3
										{
											OFFSET -2.889687 -0.000015 0.000379
											CHANNELS 6 Xposition Yposition Zposition Xrotation Yrotation Zrotation
											JOINT mixamorig:RightHandRing4
											{
												OFFSET -2.638809 -0.000015 0.000941
												CHANNELS 6 Xposition Yposition Zposition Xrotation Yrotation Zrotation
												End Site
												{
													OFFSET -263.880371 0.000000 0.516020
												}
											}
										}
									}
								}
								JOINT mixamorig:RightHandPinky1
								{
									OFFSET -8.076683 -0.486710 -3.806280
									CHANNELS 6 Xposition Yposition Zposition Xrotation Yrotation Zrotation
									JOINT mixamorig:RightHandPinky2
									{
										OFFSET -3.600014 -0.000015 -0.003747
										CHANNELS 6 Xposition Yposition Zposition Xrotation Yrotation Zrotation
										JOINT mixamorig:RightHandPinky3
										{
											OFFSET -2.099983 0.000000 -0.005739
											CHANNELS 6 Xposition Yposition Zposition Xrotation Yrotation Zrotation
											JOINT mixamorig:RightHandPinky4
											{
												OFFSET -2.115768 -0.000031 -0.003680
												CHANNELS 6 Xposition Yposition Zposition Xrotation Yrotation Zrotation
												End Site
												{
													OFFSET -211.577087 0.000000 -0.350686
												}
											}
										}
									}
								}
							}
						}
					}
				}
				JOINT mixamorig:LeftShoulder
				{
					OFFSET 4.570447 11.014725 -2.160855
					CHANNELS 6 Xposition Yposition Zposition Xrotation Yrotation Zrotation
					JOINT mixamorig:LeftArm
					{
						OFFSET 10.592371 -0.524597 -2.232119
						CHANNELS 6 Xposition Yposition Zposition Xrotation Yrotation Zrotation
						JOINT mixamorig:LeftForeArm
						{
							OFFSET 27.841532 -0.000031 0.000026
							CHANNELS 6 Xposition Yposition Zposition Xrotation Yrotation Zrotation
							JOINT mixamorig:LeftHand
							{
								OFFSET 28.328846 -0.000061 0.000022
								CHANNELS 6 Xposition Yposition Zposition Xrotation Yrotation Zrotation
								JOINT mixamorig:LeftHandThumb1
								{
									OFFSET 2.466141 -1.576172 2.681732
									CHANNELS 6 Xposition Yposition Zposition Xrotation Yrotation Zrotation
									JOINT mixamorig:LeftHandThumb2
									{
										OFFSET 3.217812 -1.872070 1.916482
										CHANNELS 6 Xposition Yposition Zposition Xrotation Yrotation Zrotation
										JOINT mixamorig:LeftHandThumb3
										{
											OFFSET 2.656029 -1.528778 1.514513
											CHANNELS 6 Xposition Yposition Zposition Xrotation Yrotation Zrotation
											JOINT mixamorig:LeftHandThumb4
											{
												OFFSET 2.020889 -1.154053 1.115139
												CHANNELS 6 Xposition Yposition Zposition Xrotation Yrotation Zrotation
												End Site
												{
													OFFSET 190.885437 -115.081749 130.048782
												}
											}
										}
									}
								}
								JOINT mixamorig:LeftHandIndex1
								{
									OFFSET 9.109314 -0.518021 2.259871
									CHANNELS 6 Xposition Yposition Zposition Xrotation Yrotation Zrotation
									JOINT mixamorig:LeftHandIndex2
									{
										OFFSET 3.699989 0.000000 -0.000322
										CHANNELS 6 Xposition Yposition Zposition Xrotation Yrotation Zrotation
										JOINT mixamorig:LeftHandIndex3
										{
											OFFSET 2.850006 0.000000 0.000352
											CHANNELS 6 Xposition Yposition Zposition Xrotation Yrotation Zrotation
											JOINT mixamorig:LeftHandIndex4
											{
												OFFSET 2.774864 -0.000031 -0.000027
												CHANNELS 6 Xposition Yposition Zposition Xrotation Yrotation Zrotation
												End Site
												{
													OFFSET 277.486267 0.000000 -0.009857
												}
											}
										}
									}
								}
								JOINT mixamorig:LeftHandMiddle1
								{
									OFFSET 9.533394 0.000061 0.000044
									CHANNELS 6 Xposition Yposition Zposition Xrotation Yrotation Zrotation
									JOINT mixamorig:LeftHandMiddle2
									{
										OFFSET 3.699989 -0.000015 -0.000231
										CHANNELS 6 Xposition Yposition Zposition Xrotation Yrotation Zrotation
										JOINT mixamorig:LeftHandMiddle3
										{
											OFFSET 2.949997 -0.000015 -0.000059
											CHANNELS 6 Xposition Yposition Zposition Xrotation Yrotation Zrotation
											JOINT mixamorig:LeftHandMiddle4
											{
												OFFSET 2.952896 0.000031 0.000063
												CHANNELS 6 Xposition Yposition Zposition Xrotation Yrotation Zrotation
												End Site
												{
													OFFSET 295.289337 0.000000 0.022810
												}
											}
										}
									}
								}
								JOINT mixamorig:LeftHandRing1
								{
									OFFSET 9.104523 -0.042999 -1.865074
									CHANNELS 6 Xposition Yposition Zposition Xrotation Yrotation Zrotation
									JOINT mixamorig:LeftHandRing2
									{
										OFFSET 3.150009 -0.000031 0.000043
										CHANNELS 6 Xposition Yposition Zposition Xrotation Yrotation Zrotation
										JOINT mixamorig:LeftHandRing3
										{
											OFFSET 2.949982 -0.000015 0.000040
											CHANNELS 6 Xposition Yposition Zposition Xrotation Yrotation Zrotation
											JOINT mixamorig:LeftHandRing4
											{
												OFFSET 2.644348 0.000000 0.000057
												CHANNELS 6 Xposition Yposition Zposition Xrotation Yrotation Zrotation
												End Site
												{
													OFFSET 264.434631 0.000000 0.012105
												}
											}
										}
									}
								}
								JOINT mixamorig:LeftHandPinky1
								{
									OFFSET 8.077789 -0.486847 -3.806259
									CHANNELS 6 Xposition Yposition Zposition Xrotation Yrotation Zrotation
									JOINT mixamorig:LeftHandPinky2
									{
										OFFSET 3.599953 0.000031 0.014727
										CHANNELS 6 Xposition Yposition Zposition Xrotation Yrotation Zrotation
										JOINT mixamorig:LeftHandPinky3
										{
											OFFSET 2.100021 0.000015 0.007705
											CHANNELS 6 Xposition Yposition Zposition Xrotation Yrotation Zrotation
											JOINT mixamorig:LeftHandPinky4
											{
												OFFSET 2.125504 0.000031 0.007517
												CHANNELS 6 Xposition Yposition Zposition Xrotation Yrotation Zrotation
												End Site
												{
													OFFSET 212.550781 0.000000 0.625752
												}
											}
										}
									}
								}
							}
						}
					}
				}
			}
		}
	}
	JOINT mixamorig:RightUpLeg
	{
		OFFSET -8.207787 -6.751648 -1.599560
		CHANNELS 6 Xposition Yposition Zposition Xrotation Yrotation Zrotation
		JOINT mixamorig:RightLeg
		{
			OFFSET -0.000002 -44.370117 0.345942
			CHANNELS 6 Xposition Yposition Zposition Xrotation Yrotation Zrotation
			JOINT mixamorig:RightFoot
			{
				OFFSET 0.000003 -44.423679 -3.043532
				CHANNELS 6 Xposition Yposition Zposition Xrotation Yrotation Zrotation
				JOINT mixamorig:RightToeBase
				{
					OFFSET -0.000002 -8.728671 10.710558
					CHANNELS 6 Xposition Yposition Zposition Xrotation Yrotation Zrotation
					JOINT mixamorig:RightToe_End
					{
						OFFSET -0.000001 -0.000679 9.278119
						CHANNELS 6 Xposition Yposition Zposition Xrotation Yrotation Zrotation
						End Site
						{
							OFFSET 0.000000 -0.067690 927.812134
						}
					}
				}
			}
		}
	}
	JOINT mixamorig:LeftUpLeg
	{
		OFFSET 8.207793 -6.751686 -1.599556
		CHANNELS 6 Xposition Yposition Zposition Xrotation Yrotation Zrotation
		JOINT mixamorig:LeftLeg
		{
			OFFSET -0.000004 -44.370014 0.346954
			CHANNELS 6 Xposition Yposition Zposition Xrotation Yrotation Zrotation
			JOINT mixamorig:LeftFoot
			{
				OFFSET -0.000001 -44.423672 -3.044401
				CHANNELS 6 Xposition Yposition Zposition Xrotation Yrotation Zrotation
				JOINT mixamorig:LeftToeBase
				{
					OFFSET -0.000002 -8.728669 10.710558
					CHANNELS 6 Xposition Yposition Zposition Xrotation Yrotation Zrotation
					JOINT mixamorig:LeftToe_End
					{
						OFFSET -0.000003 -0.000679 9.278133
						CHANNELS 6 Xposition Yposition Zposition Xrotation Yrotation Zrotation
						End Site
						{
							OFFSET 0.000000 -0.068021 927.813477
						}
					}
				}
			}
		}
	}
}
MOTION
Frames: 3
Frame Time: 0.033333
0.000006 104.270477 1.554256 0.000010 0.000003 -0.000113 -0.000005 10.181587 0.131522 0.000001 -0.000003 0.000084 -0.000000 9.893967 -1.470711 0.000001 0.000000 -0.000000 -0.000000 9.220802 -1.370642 0.000000 -0.000000 -0.000000 0.000001 16.740433 -2.049030 0.000000 -0.000000 -0.000000 0.000000 9.617859 1.685014 0.000000 0.000000 0.000000 0.000002 22.037384 7.501101 0.000000 -0.000000 0.000000 -4.569968 11.014880 -2.160881 0.000008 0.000001 -0.000038 -10.592869 -0.524778 -2.231882 72.472945 34.573834 -25.696413 -27.841516 0.000009 0.000548 -49.718730 105.465730 62.676302 -28.328812 0.000021 0.000029 -0.000321 -0.000042 0.000003 -2.464380 -1.573807 2.682353 -43.660936 -160.045676 0.038892 -3.215254 -1.872508 1.924636 149.157412 33.127288 21.719037 -2.654953 -1.527883 1.513062 146.810162 27.984091 -25.993405 -2.018826 -1.152000 1.108068 -0.000002 0.000006 0.000005 -9.108358 -0.517562 2.260164 107.806326 15.770543 -21.574025 -3.700074 0.000321 0.001557 106.129631 13.217238 -17.490550 -2.850104 0.000371 -0.000194 105.565368 11.459208 -15.049593 -2.772171 -0.000015 -0.000014 0.000000 -0.000000 -0.000000 -9.532574 0.000263 0.000242 93.179510 16.831014 -17.928295 -3.700071 0.000329 0.003979 95.265477 11.855181 -12.885298 -2.950054 0.000338 -0.001785 98.496874 12.002819 -13.903338 -2.946618 0.000003 -0.000155 0.000001 0.000000 0.000001 -9.103692 -0.042772 -1.864878 87.011692 19.654250 -18.629595 -3.379349 0.000305 -0.000809 92.487127 10.282767 -10.754734 -2.889744 0.000356 0.000652 99.672718 7.635338 -9.095901 -2.638789 -0.000014 0.000940 -0.000004 -0.000000 -0.000002 -8.076738 -0.486405 -3.806072 73.594100 20.412574 -15.221379 -3.600051 0.000270 -0.003554 78.090475 11.482628 -9.022987 -2.100029 0.000302 -0.005531 82.265189 6.698390 -5.656877 -2.115786 -0.000056 -0.003674 0.000001 0.000003 -0.000002 4.570446 11.014691 -2.160851 -0.000018 0.000010 -0.000021 10.592520 -0.524540 -2.232388 62.598308 -64.051233 41.642929 27.841789 -0.000066 -0.000105 212.309218 -74.235134 221.890361 28.328831 -0.000028 0.000022 0.000020 -0.000089 0.000000 2.466178 -1.576085 2.681910 116.103708 180.039634 -162.927606 3.217840 -1.871982 1.916542 95.007037 146.219501 -146.791161 2.656024 -1.528796 1.514611 87.403479 137.810063 -138.675639 2.020888 -1.154076 1.115128 0.000003 0.000004 0.000001 9.109298 -0.517656 2.260044 213.230487 -1.844390 353.856036 3.699902 0.000386 -0.000163 208.894792 -6.967645 -26.628541 2.849885 0.000387 0.000508 24.149356 -172.184588 144.584600 2.774877 -0.000030 -0.000025 -0.000000 0.000000 0.000001 9.533409 0.000374 0.000203 216.349479 -0.287520 -0.854168 3.699958 0.000341 -0.000042 220.740130 -4.997874 -13.402312 2.949962 0.000315 0.000137 43.348315 -172.699626 161.756665 2.952859 -0.000015 0.000061 0.000000 -0.000001 -0.000000 9.104530 -0.042693 -1.864912 220.250037 0.458376 1.246455 3.150034 0.000301 0.000223 227.597804 3.061761 6.931766 2.949978 0.000296 0.000255 -129.467288 0.941310 1.991037 2.644317 0.000031 0.000067 0.000002 0.000001 0.000000 8.077794 -0.486562 -3.806069 227.376355 1.583476 2.507026 3.600018 0.000275 0.014926 229.317263 8.831938 18.034172 2.100055 0.000264 0.007906 233.062993 9.770172 18.482226 2.125503 -0.000000 0.007513 0.000005 0.000001 0.000000 -8.207786 -6.751667 -1.599560 -0.077001 -0.000003 0.000080 -0.000002 -44.370110 0.345938 0.153719 -0.000000 -0.000000 0.000000 -44.423679 -3.043532 -0.076700 0.000000 -0.000002 -0.000006 -8.728667 10.710559 -0.000009 -0.000000 -0.000000 -0.000001 -0.000679 9.278123 0.000000 -0.000000 -0.000000 8.207792 -6.751710 -1.599556 -0.074518 -0.000003 0.000081 -0.000002 -44.370014 0.346960 0.148822 0.000002 0.000000 -0.000001 -44.423664 -3.044403 -0.074314 0.000000 -0.000002 -0.000004 -8.728671 10.710558 0.000007 -0.000000 -0.000000 0.000000 -0.000680 9.278137 -0.000000 0.000000 -0.000001 
0.000006 104.270477 1.554256 0.000010 0.000003 -0.000113 -0.000005 10.181587 0.131522 0.000001 -0.000003 0.000084 -0.000000 9.893967 -1.470711 0.000001 0.000000 -0.000000 -0.000000 9.220802 -1.370642 0.000000 -0.000000 -0.000000 0.000001 16.740433 -2.049030 0.000000 -0.000000 -0.000000 0.000000 9.617859 1.685014 0.000000 0.000000 0.000000 0.000002 22.037384 7.501101 0.000000 -0.000000 0.000000 -4.569968 11.014880 -2.160881 0.000008 0.000001 -0.000038 -10.592872 -0.524771 -2.231899 72.678882 31.304253 -23.292767 -27.841520 -0.000002 0.000548 -50.053703 104.904384 62.548748 -28.328817 0.000009 0.000034 -0.000325 -0.000043 0.000006 -2.464408 -1.573850 2.682368 -41.400611 -158.294415 4.849623 -3.215261 -1.872538 1.924627 150.093462 33.130051 19.891905 -2.654947 -1.527860 1.513063 146.960577 27.777915 -28.069035 -2.018838 -1.152014 1.108062 -0.000003 0.000000 0.000004 -9.108379 -0.517564 2.260162 107.501290 16.176091 -22.000871 -3.700072 0.000317 0.001561 106.108819 13.328480 -17.630398 -2.850081 0.000360 -0.000203 105.568865 11.464967 -15.058067 -2.772178 -0.000015 -0.000017 -0.000000 -0.000004 -0.000000 -9.532590 0.000266 0.000246 92.881448 17.621630 -18.667138 -3.700069 0.000318 0.003977 95.292019 12.147442 -13.210778 -2.950070 0.000329 -0.001787 98.488008 12.144659 -14.065120 -2.946627 -0.000013 -0.000155 0.000001 -0.000001 0.000001 -9.103706 -0.042776 -1.864884 86.756127 20.615557 -19.458997 -3.379359 0.000305 -0.000812 92.910544 10.760666 -11.336581 -2.889760 0.000343 0.000657 100.053645 7.708902 -9.244870 -2.638792 -0.000026 0.000941 0.000002 0.000001 -0.000001 -8.076756 -0.486411 -3.806083 73.535278 21.102206 -15.727287 -3.600044 0.000237 -0.003557 78.226286 11.927447 -9.406088 -2.100028 0.000308 -0.005520 82.511376 6.981615 -5.929285 -2.115774 -0.000055 -0.003678 -0.000000 -0.000002 -0.000004 4.570446 11.014691 -2.160851 -0.000018 0.000010 -0.000021 10.592510 -0.524535 -2.232394 59.807035 -59.635365 36.484835 27.841793 -0.000039 -0.000131 202.806895 -78.417470 207.773549 28.328835 -0.000015 0.000020 0.000019 -0.000088 0.000002 2.466183 -1.576080 2.681913 115.030426 183.443076 -163.101120 3.217851 -1.871965 1.916561 92.748532 150.854290 -146.960386 2.656045 -1.528792 1.514613 84.457038 140.756265 -137.869745 2.020875 -1.154053 1.115138 0.000005 0.000005 0.000006 9.109257 -0.517672 2.260050 215.692415 -6.613061 339.677411 3.699903 0.000343 -0.000142 213.924995 -7.447284 -24.123047 2.849949 0.000392 0.000535 31.211598 -174.126753 159.189156 2.774880 -0.000030 -0.000026 0.000001 -0.000000 -0.000000 9.533357 0.000398 0.000238 218.953107 -6.072480 -17.043030 3.699981 0.000307 -0.000034 224.477746 -3.559469 -8.686485 2.949990 0.000305 0.000155 49.421808 -177.760987 175.131733 2.952867 -0.000032 0.000052 0.000000 -0.000001 -0.000001 9.104492 -0.042705 -1.864884 223.443888 -4.631936 -11.596690 3.150018 0.000301 0.000247 228.881470 0.616387 1.352786 2.950001 0.000279 0.000248 -125.183707 1.925841 3.710115 2.644318 0.000049 0.000065 0.000003 -0.000001 0.000000 8.077767 -0.486572 -3.806037 230.197702 -2.829335 -6.964183 3.599974 0.000316 0.014944 231.250589 3.814183 6.999142 2.100038 0.000278 0.007916 237.056851 6.389705 10.896939 2.125509 -0.000015 0.007513 -0.000001 -0.000002 -0.000002 -8.207786 -6.751667 -1.599560 -0.077001 -0.000003 0.000080 -0.000002 -44.370110 0.345938 0.153719 -0.000000 -0.000000 0.000000 -44.423679 -3.043532 -0.076700 0.000000 -0.000002 -0.000006 -8.728667 10.710559 -0.000009 -0.000000 -0.000000 -0.000001 -0.000679 9.278123 0.000000 -0.000000 -0.000000 8.207792 -6.751710 -1.599556 -0.074518 -0.000003 0.000081 -0.000002 -44.370014 0.346960 0.148822 0.000002 0.000000 -0.000001 -44.423664 -3.044403 -0.074314 0.000000 -0.000002 -0.000004 -8.728671 10.710558 0.000007 -0.000000 -0.000000 0.000000 -0.000680 9.278137 -0.000000 0.000000 -0.000001 
0.000006 104.270477 1.554256 0.000010 0.000003 -0.000113 -0.000005 10.181587 0.131522 0.000001 -0.000003 0.000084 -0.000000 9.893967 -1.470711 0.000001 0.000000 -0.000000 -0.000000 9.220802 -1.370642 0.000000 -0.000000 -0.000000 0.000001 16.740433 -2.049030 0.000000 -0.000000 -0.000000 0.000000 9.617859 1.685014 0.000000 0.000000 0.000000 0.000002 22.037384 7.501101 0.000000 -0.000000 0.000000 -4.569968 11.014880 -2.160881 0.000008 0.000001 -0.000038 -10.592867 -0.524790 -2.231853 72.713135 38.776422 -29.046404 -27.841537 -0.000001 0.000547 -50.151180 103.286865 61.190032 -28.328808 0.000019 0.000028 -0.000320 -0.000047 0.000008 -2.464398 -1.573846 2.682355 -40.802775 -157.439412 5.931935 -3.215256 -1.872524 1.924620 149.265178 33.291551 22.776847 -2.654969 -1.527855 1.513063 147.032130 27.824283 -27.470300 -2.018838 -1.151997 1.108051 -0.000004 -0.000003 0.000000 -9.108360 -0.517558 2.260159 107.111033 16.022181 -21.643058 -3.700074 0.000307 0.001560 105.914671 13.145822 -17.329783 -2.850086 0.000355 -0.000200 105.629456 11.248239 -14.790781 -2.772155 -0.000015 -0.000016 -0.000001 0.000002 -0.000000 -9.532582 0.000252 0.000249 92.555279 17.842230 -18.793336 -3.700056 0.000333 0.003982 95.162259 12.140852 -13.173839 -2.950068 0.000331 -0.001779 98.783735 12.026045 -14.000203 -2.946630 0.000001 -0.000160 -0.000002 0.000000 -0.000001 -9.103701 -0.042791 -1.864873 86.482045 20.838967 -19.578532 -3.379337 0.000318 -0.000811 92.604483 10.975101 -11.500782 -2.889754 0.000357 0.000650 100.257287 7.810755 -9.399946 -2.638801 -0.000027 0.000940 -0.000001 -0.000000 0.000003 -8.076742 -0.486425 -3.806067 73.285505 21.219912 -15.745512 -3.600059 0.000246 -0.003564 77.784544 12.359523 -9.680789 -2.100017 0.000309 -0.005533 82.736356 7.279283 -6.214320 -2.115780 -0.000038 -0.003680 0.000002 0.000001 -0.000002 4.570446 11.014691 -2.160851 -0.000018 0.000010 -0.000021 10.592510 -0.524537 -2.232395 60.983303 -60.027384 37.572580 27.841784 -0.000034 -0.000138 200.493660 -82.750645 203.194986 28.328821 -0.000018 0.000027 0.000017 -0.000090 0.000001 2.466178 -1.576079 2.681903 113.163278 182.905486 -162.588487 3.217844 -1.871953 1.916577 95.540044 157.059462 -150.259476 2.656053 -1.528783 1.514627 86.352531 147.322823 -141.543977 2.020894 -1.154068 1.115135 0.000003 0.000002 0.000004 9.109239 -0.517674 2.260056 217.905520 -8.507183 335.579816 3.699894 0.000331 -0.000149 215.746032 -10.733151 -32.509819 2.849905 0.000364 0.000539 32.742339 -171.496419 151.599136 2.774887 -0.000046 -0.000024 0.000001 0.000001 0.000000 9.533335 0.000385 0.000240 221.308607 -8.018622 -21.051818 3.699930 0.000344 -0.000036 226.052296 -7.521571 -17.579247 2.949960 0.000303 0.000140 49.069715 -174.023808 166.947773 2.952863 -0.000031 0.000064 -0.000001 0.000001 0.000001 9.104473 -0.042692 -1.864882 224.282553 -6.466885 -15.812206 3.149983 0.000344 0.000257 229.142957 -3.294635 -7.201173 2.949980 0.000283 0.000262 -126.578268 -1.857121 -3.692590 2.644325 0.000031 0.000058 0.000001 0.000002 -0.000000 8.077759 -0.486558 -3.806044 229.459604 -4.417614 -10.475380 3.599967 0.000320 0.014951 231.912216 1.642240 2.481628 2.100024 0.000263 0.007926 236.209962 4.110366 6.873709 2.125503 -0.000030 0.007512 -0.000003 0.000000 0.000000 -8.207786 -6.751667 -1.599560 -0.077001 -0.000003 0.000080 -0.000002 -44.370110 0.345938 0.153719 -0.000000 -0.000000 0.000000 -44.423679 -3.043532 -0.076700 0.000000 -0.000002 -0.000006 -8.728667 10.710559 -0.000009 -0.000000 -0.000000 -0.000001 -0.000679 9.278123 0.000000 -0.000000 -0.000000 8.207792 -6.751710 -1.599556 -0.074518 -0.000003 0.000081 -0.000002 -44.370014 0.346960 0.148822 0.000002 0.000000 -0.000001 -44.423664 -3.044403 -0.074314 0.000000 -0.000002 -0.000004 -8.728671 10.710558 0.000007 -0.000000 -0.000000 0.000000 -0.000680 9.278137 -0.000000 0.000000 -0.000001 
